<svg width="32" height="32" viewBox="0 0 32 32" fill="none" xmlns="http://www.w3.org/2000/svg">
<rect width="32" height="32" rx="16" fill="white"/>
<path fill-rule="evenodd" clip-rule="evenodd" d="M16 6C10.477 6 6 10.477 6 16C6 17.89 6.525 19.66 7.438 21.168L6.546 24.2C6.49478 24.3741 6.49141 24.5587 6.53624 24.7346C6.58107 24.9104 6.67245 25.0709 6.80076 25.1992C6.92907 25.3275 7.08958 25.4189 7.26542 25.4637C7.44125 25.5086 7.62592 25.5052 7.8 25.454L10.832 24.562C12.3907 25.5051 14.1782 26.0025 16 26C21.523 26 26 21.523 26 16C26 10.477 21.523 6 16 6ZM13.738 18.263C15.761 20.285 17.692 20.552 18.374 20.577C19.411 20.615 20.421 19.823 20.814 18.904C20.8636 18.7897 20.8816 18.6641 20.8661 18.5405C20.8507 18.4168 20.8023 18.2996 20.726 18.201C20.178 17.501 19.437 16.998 18.713 16.498C18.5618 16.3935 18.3761 16.3515 18.1947 16.381C18.0133 16.4105 17.8503 16.509 17.74 16.656L17.14 17.571C17.1085 17.6202 17.0593 17.6555 17.0026 17.6696C16.9459 17.6837 16.8859 17.6756 16.835 17.647C16.428 17.414 15.835 17.018 15.409 16.592C14.983 16.166 14.611 15.6 14.402 15.219C14.3761 15.1706 14.3686 15.1144 14.3809 15.0609C14.3932 15.0074 14.4245 14.9602 14.469 14.928L15.393 14.242C15.5249 14.1273 15.61 13.9682 15.6321 13.7949C15.6542 13.6215 15.6118 13.4461 15.513 13.302C15.065 12.646 14.543 11.812 13.786 11.259C13.6883 11.1882 13.5739 11.1441 13.4539 11.1309C13.334 11.1178 13.2127 11.1361 13.102 11.184C12.182 11.578 11.386 12.588 11.424 13.627C11.449 14.309 11.716 16.24 13.738 18.263Z" fill="black"/>
</svg>
