<svg width="24" height="24" viewBox="0 0 24 24" fill="none" xmlns="http://www.w3.org/2000/svg">
<g clip-path="url(#clip0_272_14)">
<path d="M4.59404 4.98439C4.7751 4.96335 4.95846 4.99219 5.12431 5.0678C5.29016 5.14342 5.43219 5.26292 5.53504 5.41339C7.01104 7.57239 8.78304 8.47039 10.75 8.67439C10.846 7.83339 11.073 7.00239 11.5 6.27039C12.126 5.19639 13.144 4.40639 14.598 4.11439C16.608 3.71039 18.138 4.43839 19.025 5.32939L20.817 4.99439C21.0046 4.95926 21.1982 4.9785 21.3752 5.04984C21.5521 5.12119 21.7049 5.24166 21.8157 5.39704C21.9264 5.55242 21.9903 5.73623 21.9999 5.92677C22.0096 6.11731 21.9645 6.30663 21.87 6.47239L20.15 9.49439C20.307 13.8554 19.095 16.8994 16.511 18.9964C15.141 20.1084 13.179 20.7394 11.026 20.9344C8.85604 21.1304 6.40304 20.8934 3.96504 20.1814C3.75674 20.1206 3.57384 19.9938 3.44397 19.8199C3.31409 19.6461 3.24428 19.4347 3.24507 19.2178C3.24587 19.0008 3.31721 18.7899 3.44835 18.617C3.57949 18.4442 3.7633 18.3186 3.97204 18.2594C5.19804 17.9104 6.13204 17.6094 6.97504 17.0824C5.77604 16.4464 4.89304 15.6144 4.26804 14.6664C3.40004 13.3484 3.07804 11.8784 3.01404 10.5534C2.95004 9.22839 3.14104 8.00039 3.34304 7.11539C3.45804 6.61039 3.59204 6.10439 3.77704 5.62039C3.8423 5.44978 3.95304 5.3003 4.09725 5.18818C4.24145 5.07606 4.41261 5.00558 4.59404 4.98439Z" fill="white"/>
</g>
<defs>
<clipPath id="clip0_272_14">
<rect width="24" height="24" fill="white"/>
</clipPath>
</defs>
</svg>
